<svg height="22" viewBox="0 0 48 48" width="22" xml:space="preserve" xmlns="http://www.w3.org/2000/svg"><defs><path d="M 18 40 L 30 40 L 30 45.550781 L 18 45.550781 Z M 18 40 " clip-rule="nonzero"></path><path d="M 3.179688 0 L 45.058594 0 L 45.058594 40 L 3.179688 40 Z M 3.179688 0 " clip-rule="nonzero"></path></defs><path fill="#242424" d="M 24.117188 43.492188 C 22.453125 43.492188 20.953125 42.519531 20.28125 41.011719 L 18.371094 41.839844 C 19.371094 44.089844 21.625 45.550781 24.117188 45.550781 C 26.648438 45.550781 28.910156 44.070312 29.894531 41.777344 L 27.972656 40.96875 C 27.308594 42.5 25.800781 43.492188 24.117188 43.492188 Z M 24.117188 43.492188 " fill-opacity="1" fill-rule="nonzero" stroke="#242424" stroke-width="1"></path><path fill="#242424" d="M 44.644531 36.511719 L 39.128906 31.972656 C 38.890625 31.773438 38.75 31.492188 38.75 31.183594 L 38.75 18.730469 C 38.75 14.746094 37.140625 11.035156 34.214844 8.285156 C 32.496094 6.671875 30.453125 5.527344 28.246094 4.890625 C 28.292969 4.574219 28.3125 4.257812 28.285156 3.921875 C 28.128906 2.160156 26.8125 0.664062 25.082031 0.28125 C 23.816406 0 22.507812 0.289062 21.507812 1.078125 C 20.511719 1.871094 19.941406 3.039062 19.941406 4.300781 C 19.941406 4.511719 19.980469 4.703125 20.007812 4.902344 C 13.898438 6.699219 9.484375 12.378906 9.484375 19.113281 L 9.484375 31.175781 C 9.484375 31.484375 9.347656 31.773438 9.109375 31.964844 L 3.589844 36.503906 C 3.351562 36.703125 3.210938 36.992188 3.210938 37.292969 L 3.210938 38.328125 C 3.210938 38.898438 3.683594 39.363281 4.261719 39.363281 L 43.976562 39.363281 C 44.554688 39.363281 45.023438 38.898438 45.023438 38.328125 L 45.023438 37.292969 C 45.015625 36.992188 44.875 36.703125 44.644531 36.511719 Z M 22.019531 4.300781 C 22.019531 3.667969 22.304688 3.085938 22.804688 2.6875 C 23.308594 2.285156 23.941406 2.140625 24.613281 2.285156 C 25.453125 2.476562 26.113281 3.230469 26.195312 4.09375 C 26.207031 4.210938 26.1875 4.328125 26.179688 4.445312 C 25.269531 4.320312 24.347656 4.273438 23.402344 4.3125 C 22.941406 4.328125 22.480469 4.375 22.03125 4.445312 C 22.039062 4.394531 22.019531 4.347656 22.019531 4.300781 Z M 5.890625 37.300781 L 10.441406 33.554688 C 11.160156 32.964844 11.574219 32.101562 11.574219 31.175781 L 11.574219 19.113281 C 11.574219 12.28125 16.816406 6.679688 23.511719 6.371094 C 26.988281 6.207031 30.269531 7.425781 32.773438 9.773438 C 35.273438 12.132812 36.652344 15.3125 36.652344 18.730469 L 36.652344 31.175781 C 36.652344 32.089844 37.066406 32.964844 37.785156 33.554688 L 42.339844 37.300781 Z M 5.890625 37.300781 " fill-opacity="1" fill-rule="nonzero" stroke="#242424" stroke-width="1"></path></svg>