<svg width="30" height="23" viewBox="0 0 15 13" fill="none" xmlns="http://www.w3.org/2000/svg"><path fill-rule="evenodd" clip-rule="evenodd" d="M2 0.956055C0.895431 0.956055 0 1.85149 0 2.95606V10.043C0 11.1476 0.89543 12.043 2 12.043H13C14.1046 12.043 15 11.1476 15 10.043V2.95605C15 1.85149 14.1046 0.956055 13 0.956055H2ZM1.65224 1.6083C1.09996 1.6083 0.652241 2.05601 0.652241 2.6083V5.17351C0.652241 5.7258 1.09996 6.17351 1.65224 6.17351H13.3479C13.9002 6.17351 14.3479 5.7258 14.3479 5.17351V2.6083C14.3479 2.05601 13.9002 1.6083 13.3479 1.6083H1.65224Z" fill="#242424"></path></svg>