<svg width="80" height="40" viewBox="0 0 903 391" fill="none" xmlns="http://www.w3.org/2000/svg"><g clip-path="url(#clip0_6776_39451)"><path d="M283.45 390.523L374.742 391L407 60H281.477L215.939 234.34L214.88 60H88.8086L0 390.56H92.7541L147.223 197.88L151.716 390.56H224.634L316.182 193.698L283.45 390.523Z" fill="url(#paint0_linear_6776_39451)"></path><path d="M282.71 390.4L282.565 391.269L283.446 391.273L374.739 391.75L375.423 391.754L375.489 391.073L407.746 60.0727L407.827 59.25H407H281.477H280.958L280.775 59.7361L216.664 230.279L215.63 59.9954L215.625 59.25H214.88H88.8086H88.2335L88.0843 59.8054L-0.724315 390.365L-0.978091 391.31H0H92.7541H93.3214L93.4758 390.764L146.589 202.878L150.966 390.577L150.984 391.31H151.716H224.634H225.112L225.314 390.876L314.538 199.012L282.71 390.4Z" stroke="white" stroke-opacity="0.8" stroke-width="1.5"></path><path d="M571.227 59.6964H641.68L530.585 309.826H454.918L481.976 257.179L413.505 59.6964H487.923L522.177 164.771L571.227 59.6964Z" fill="url(#paint1_linear_6776_39451)"></path><path d="M487.96 59.6964L522.214 164.734L481.976 257.179L413.505 59.6964H487.96Z" fill="url(#paint2_linear_6776_39451)"></path><path d="M900.402 51.9131L813.537 131.471C812.583 132.132 811.224 131.471 811.224 130.297V111.059C811.224 109.627 810.674 108.305 809.719 107.314C808.471 105.992 806.635 105.772 806.048 105.699C780.348 102.394 763.533 109.186 763.533 109.186C748.921 115.097 726.526 124.129 723.699 142.559C721.717 155.409 730.087 167.377 734.089 173.105C740.037 181.586 746.939 186.799 751.565 189.699L757.329 194.582C777.154 211.177 790.224 225.458 796.466 237.28C802.707 249.175 805.828 262.906 805.828 278.473C805.828 313.167 793.271 340.519 768.159 360.528C743.011 380.573 708.61 390.559 664.994 390.559H442.95C420.922 390.706 398.637 390.853 376.609 391C379.252 363.942 381.895 336.884 384.575 309.826C384.575 309.826 443.281 309.826 443.464 309.826H663.489C674.099 309.826 682.507 307.33 688.785 302.337C695.026 297.38 698.11 290.588 698.11 281.997C698.11 274.618 695.577 267.165 690.326 259.859C685.113 252.553 675.017 242.787 660.111 230.598C642.048 215.656 629.602 202.439 622.81 191.021C616.055 179.566 612.64 166.974 612.64 153.169C612.64 122.183 624.132 97.5481 647.151 79.3382C649.611 77.3923 652.071 75.5934 654.641 73.9045C663.122 68.3241 670.501 65.0933 675.531 63.074C711.106 48.9026 754.612 38.2923 754.612 38.2923C767.572 35.135 785.011 31.0598 805.828 26.6541C808.801 26.6541 811.224 24.231 811.224 21.2572V1.46858C811.224 0.293743 812.583 -0.403816 813.537 0.293743L900.402 43.1018C903.486 45.2312 903.486 49.747 900.402 51.9131Z" fill="url(#paint3_linear_6776_39451)"></path><path d="M284.861 390.523L376.608 391L409.026 59.6964H282.878L217.014 234.196L215.949 59.6964H89.2508L0 390.559H93.2159L147.956 197.703L152.472 390.559H225.752L317.756 193.517L284.861 390.523Z" fill="url(#paint4_linear_6776_39451)"></path><path d="M805.827 278.436C805.827 313.13 793.271 340.482 768.159 360.491C743.01 380.537 708.609 390.523 664.994 390.523H619.395C633.603 364.897 646.233 337.251 654.09 309.789H663.452C674.062 309.789 682.469 307.293 688.747 302.3C694.989 297.343 698.073 290.551 698.073 281.96C698.073 274.581 695.539 267.128 690.289 259.822C685.076 252.516 674.98 242.75 660.074 230.561C657.798 218.042 657.394 202.659 662.827 186.836C675.494 150.085 715.144 113.445 763.533 109.15C757.842 111.169 753.363 113.298 750.353 114.84C741.064 119.576 734.199 123.174 728.875 130.811C727.223 133.197 725.02 136.428 723.956 141.237C721.863 150.673 725.791 158.896 727.884 163.265C729.903 167.524 732.216 170.571 734.089 173.068C737.246 177.29 740.403 180.484 742.826 182.76C747.673 186.689 752.482 190.654 757.328 194.582C777.154 211.177 790.224 225.458 796.465 237.28C802.706 249.139 805.827 262.869 805.827 278.436Z" fill="url(#paint5_linear_6776_39451)"></path><path opacity="0.7" d="M900.402 43.1018C883.11 51.0687 842.027 66.8922 792.611 56.4289C774.474 52.6106 759.568 46.149 748.187 39.9077C757.182 37.6682 766.324 35.4287 775.649 33.2993C785.855 30.9496 795.915 28.7101 805.791 26.6541C808.764 26.6541 811.188 24.231 811.188 21.2572V1.46858C811.188 0.293743 812.546 -0.403816 813.501 0.293743L900.402 43.1018Z" fill="url(#paint6_linear_6776_39451)"></path></g><defs><linearGradient id="paint0_linear_6776_39451" x1="0" y1="225.503" x2="407.017" y2="225.503" gradientUnits="userSpaceOnUse"><stop stop-color="#001A6D"></stop><stop offset="0.4262" stop-color="#072793"></stop><stop offset="0.7832" stop-color="#0B2FAC"></stop><stop offset="1" stop-color="#0D32B5"></stop></linearGradient><linearGradient id="paint1_linear_6776_39451" x1="515.69" y1="305.281" x2="527.577" y2="60.5272" gradientUnits="userSpaceOnUse"><stop stop-color="#1440B6"></stop><stop offset="0.2213" stop-color="#1650C2"></stop><stop offset="0.6535" stop-color="#1C7BE2"></stop><stop offset="1" stop-color="#22A1FF"></stop></linearGradient><linearGradient id="paint2_linear_6776_39451" x1="516.67" y1="256.941" x2="456.381" y2="76.5784" gradientUnits="userSpaceOnUse"><stop stop-color="#1440B6"></stop><stop offset="0.2213" stop-color="#1650C2"></stop><stop offset="0.6535" stop-color="#1C7BE2"></stop><stop offset="1" stop-color="#22A1FF"></stop></linearGradient><linearGradient id="paint3_linear_6776_39451" x1="897.865" y1="65.5099" x2="455.858" y2="424.316" gradientUnits="userSpaceOnUse"><stop stop-color="#00BEF5"></stop><stop offset="1" stop-color="#072DBC"></stop></linearGradient><linearGradient id="paint4_linear_6776_39451" x1="0" y1="225.351" x2="409.044" y2="225.351" gradientUnits="userSpaceOnUse"><stop stop-color="#001A6D"></stop><stop offset="0.4262" stop-color="#072793"></stop><stop offset="0.7832" stop-color="#0B2FAC"></stop><stop offset="1" stop-color="#0D32B5"></stop></linearGradient><linearGradient id="paint5_linear_6776_39451" x1="714.652" y1="103.163" x2="713.182" y2="270.647" gradientUnits="userSpaceOnUse"><stop stop-color="#003CB1"></stop><stop offset="0.9964" stop-color="white" stop-opacity="0"></stop></linearGradient><linearGradient id="paint6_linear_6776_39451" x1="859.94" y1="-6.63228" x2="800.804" y2="73.2815" gradientUnits="userSpaceOnUse"><stop stop-color="white"></stop><stop offset="0.9964" stop-color="white" stop-opacity="0"></stop></linearGradient><clipPath id="clip0_6776_39451"><rect width="902.714" height="391" fill="white"></rect></clipPath></defs></svg>