<svg xmlns="http://www.w3.org/2000/svg" width="28" height="28" viewBox="0 0 28 28" fill="none"><path d="M15.3125 19.6875C15.3125 19.9471 15.2355 20.2008 15.0913 20.4167C14.9471 20.6325 14.7421 20.8008 14.5023 20.9001C14.2624 20.9994 13.9985 21.0254 13.7439 20.9748C13.4893 20.9241 13.2555 20.7991 13.0719 20.6156C12.8884 20.432 12.7634 20.1982 12.7127 19.9436C12.6621 19.689 12.6881 19.4251 12.7874 19.1852C12.8868 18.9454 13.055 18.7404 13.2708 18.5962C13.4867 18.452 13.7404 18.375 14 18.375C14.3481 18.375 14.6819 18.5133 14.9281 18.7594C15.1742 19.0056 15.3125 19.3394 15.3125 19.6875ZM14 7.875C11.5872 7.875 9.625 9.64141 9.625 11.8125V12.25C9.625 12.4821 9.71719 12.7046 9.88129 12.8687C10.0454 13.0328 10.2679 13.125 10.5 13.125C10.7321 13.125 10.9546 13.0328 11.1187 12.8687C11.2828 12.7046 11.375 12.4821 11.375 12.25V11.8125C11.375 10.6094 12.553 9.625 14 9.625C15.447 9.625 16.625 10.6094 16.625 11.8125C16.625 13.0156 15.447 14 14 14C13.7679 14 13.5454 14.0922 13.3813 14.2563C13.2172 14.4204 13.125 14.6429 13.125 14.875V15.75C13.125 15.9821 13.2172 16.2046 13.3813 16.3687C13.5454 16.5328 13.7679 16.625 14 16.625C14.2321 16.625 14.4546 16.5328 14.6187 16.3687C14.7828 16.2046 14.875 15.9821 14.875 15.75V15.6712C16.87 15.3048 18.375 13.7134 18.375 11.8125C18.375 9.64141 16.4128 7.875 14 7.875ZM25.375 14C25.375 16.2498 24.7079 18.449 23.458 20.3196C22.2081 22.1902 20.4315 23.6482 18.353 24.5091C16.2745 25.3701 13.9874 25.5953 11.7809 25.1564C9.57432 24.7175 7.54749 23.6342 5.95667 22.0433C4.36584 20.4525 3.28248 18.4257 2.84357 16.2192C2.40467 14.0126 2.62993 11.7255 3.49088 9.64698C4.35182 7.56847 5.80978 5.79193 7.68039 4.54203C9.551 3.29213 11.7502 2.625 14 2.625C17.0159 2.62818 19.9073 3.82764 22.0398 5.96018C24.1724 8.09271 25.3718 10.9841 25.375 14ZM23.625 14C23.625 12.0964 23.0605 10.2355 22.0029 8.65264C20.9453 7.06981 19.4421 5.83615 17.6833 5.10766C15.9246 4.37917 13.9893 4.18856 12.1223 4.55994C10.2552 4.93132 8.54018 5.84802 7.1941 7.1941C5.84802 8.54018 4.93133 10.2552 4.55995 12.1223C4.18856 13.9893 4.37917 15.9246 5.10766 17.6833C5.83616 19.4421 7.06982 20.9453 8.65264 22.0029C10.2355 23.0605 12.0964 23.625 14 23.625C16.5518 23.6221 18.9983 22.6071 20.8027 20.8027C22.6071 18.9983 23.6221 16.5518 23.625 14Z" fill="#242424" stroke="#242424" stroke-width="0"></path></svg>